<svg xmlns="http://www.w3.org/2000/svg" xmlns:xlink="http://www.w3.org/1999/xlink" version="1.1" width="1076.399971485138" height="720.8999809026718"><defs/><g><rect fill="white" stroke="none" x="0" y="0" width="1076.399971485138" height="720.8999809026718"/><g transform="translate(181.82685477021434,-72.71830814353179) scale(1.6864921299792148,1.6864921299792148)"><path fill="none" stroke="rgb(220,20,60)" paint-order="fill stroke markers" d=" M 158.0658458340762 256.15477460833523 L 30.555815010766707 247.8203722869908" stroke-opacity="1" stroke-linejoin="round" stroke-miterlimit="10" stroke-width="2"/><path fill="rgb(220,20,60)" stroke="none" paint-order="stroke fill markers" d=" M 30.83953741311471 243.479634838307 L 33.733362378903905 243.668783106539 L 33.1659175742079 252.3502580039066 L 30.272092608418706 252.1611097356746 Z" fill-opacity="1"/><g transform="translate(103.31083042242146,242.987573447663) rotate(3.739688321702726,0,0)"><text fill="#000000" stroke="none" font-family="Helvetica Neue, Helvetica, sans-serif" font-size="12px" font-style="normal" font-weight="normal" text-decoration="normal" x="0" y="6" text-anchor="middle" dominant-baseline="text-after-edge" fill-opacity="1">decreases</text><g transform="rotate(-3.739688321702726,0,0) translate(-103.31083042242146,-242.987573447663)"><path fill="none" stroke="rgb(255,140,0)" paint-order="fill stroke markers" d=" M 164.0608445643023 237.56359259814502 L 44.15277279327657 162.62023149647604" stroke-opacity="1" stroke-linejoin="round" stroke-miterlimit="10" stroke-width="2"/><path fill="rgb(255,140,0)" stroke="none" paint-order="stroke fill markers" d=" M 48.79957129163751 162.80573257833458 A 4.35 4.35 0 1 1 48.79956911663769 162.80138257905958 Z" fill-opacity="1"/><g transform="translate(113.18100830337968,191.13828731777517) rotate(32.00566367605125,0,0)"><text fill="#000000" stroke="none" font-family="Helvetica Neue, Helvetica, sans-serif" font-size="12px" font-style="normal" font-weight="normal" text-decoration="normal" x="0" y="0" text-anchor="middle" dominant-baseline="text-after-edge" fill-opacity="1">analyzed </text><text fill="#000000" stroke="none" font-family="Helvetica Neue, Helvetica, sans-serif" font-size="12px" font-style="normal" font-weight="normal" text-decoration="normal" x="0" y="12" text-anchor="middle" dominant-baseline="text-after-edge" fill-opacity="1">for</text><g transform="rotate(-32.00566367605125,0,0) translate(-113.18100830337968,-191.13828731777517)"><path fill="none" stroke="rgb(220,20,60)" paint-order="fill stroke markers" d=" M 41.7283094788242 323.4834044395408 L 160.10142699367304 274.4532900351348" stroke-opacity="1" stroke-linejoin="round" stroke-miterlimit="10" stroke-width="2"/><path fill="rgb(220,20,60)" stroke="none" paint-order="stroke fill markers" d=" M 161.7660525061769 278.4721856425276 L 159.086788767915 279.58193598419683 L 155.75753774290732 271.5441447694112 L 158.4368014811692 270.43439442774195 Z" fill-opacity="1"/><g transform="translate(109.91486823624862,289.96834723733775) rotate(-22.499323974926078,0,0)"><text fill="#000000" stroke="none" font-family="Helvetica Neue, Helvetica, sans-serif" font-size="12px" font-style="normal" font-weight="normal" text-decoration="normal" x="0" y="0" text-anchor="middle" dominant-baseline="text-after-edge" fill-opacity="1">impaired </text><text fill="#000000" stroke="none" font-family="Helvetica Neue, Helvetica, sans-serif" font-size="12px" font-style="normal" font-weight="normal" text-decoration="normal" x="0" y="12" text-anchor="middle" dominant-baseline="text-after-edge" fill-opacity="1">in</text><g transform="rotate(22.499323974926078,0,0) translate(-109.91486823624862,-289.96834723733775)"><path fill="none" stroke="rgb(60,179,113)" paint-order="fill stroke markers" d=" M 107.41358977489463 108.88083579350044 L 175.2252208763241 221.10486069364575" stroke-opacity="1" stroke-linejoin="round" stroke-miterlimit="10" stroke-width="2"/><path fill="rgb(60,179,113)" stroke="none" paint-order="stroke fill markers" d=" M 179.394211598478 220.8053016154431 A 4.35 4.35 0 1 1 179.39420942347817 220.8009516161681 Z" fill-opacity="1"/><g transform="translate(150.27415300614783,155.91795847402244) rotate(58.85743107016909,0,0)"><text fill="#000000" stroke="none" font-family="Helvetica Neue, Helvetica, sans-serif" font-size="12px" font-style="normal" font-weight="normal" text-decoration="normal" x="0" y="0" text-anchor="middle" dominant-baseline="text-after-edge" fill-opacity="1">accumulates </text><text fill="#000000" stroke="none" font-family="Helvetica Neue, Helvetica, sans-serif" font-size="12px" font-style="normal" font-weight="normal" text-decoration="normal" x="0" y="12" text-anchor="middle" dominant-baseline="text-after-edge" fill-opacity="1">in</text><g transform="rotate(-58.85743107016909,0,0) translate(-150.27415300614783,-155.91795847402244)"><path fill="none" stroke="rgb(192,192,192)" paint-order="fill stroke markers" d=" M 270.5106788588356 111.5621102156968 L 217.4280468887792 219.2947455555142" stroke-opacity="1" stroke-linejoin="round" stroke-miterlimit="10" stroke-width="2"/><path fill="rgb(192,192,192)" stroke="none" paint-order="stroke fill markers" d=" M 215.60333404891654 213.15610376338785 L 215.66010380329107 222.8828337994785 L 223.40742597953889 217.0013799743245 Z" fill-opacity="1"/><g transform="translate(252.52737710243537,157.3254499465966) rotate(-63.76935004357795,0,0)"><text fill="#000000" stroke="none" font-family="Helvetica Neue, Helvetica, sans-serif" font-size="12px" font-style="normal" font-weight="normal" text-decoration="normal" x="0" y="6" text-anchor="middle" dominant-baseline="text-after-edge" fill-opacity="1">mutant</text><g transform="rotate(63.76935004357795,0,0) translate(-252.52737710243537,-157.3254499465966)"><path fill="none" stroke="rgb(220,20,60)" paint-order="fill stroke markers" d=" M 335.77689186501675 156.67541266647052 L 230.92457034977866 234.3567577229914" stroke-opacity="1" stroke-linejoin="round" stroke-miterlimit="10" stroke-width="2"/><path fill="rgb(220,20,60)" stroke="none" paint-order="stroke fill markers" d=" M 228.33505158038437 230.86149055967545 L 230.66522968926168 229.1351447134126 L 235.84426722805026 236.1256790400445 L 233.51408911917295 237.85202488630736 Z" fill-opacity="1"/><g transform="translate(292.3507311073977,186.51608519473098) rotate(-36.53342746541487,0,0)"><text fill="#000000" stroke="none" font-family="Helvetica Neue, Helvetica, sans-serif" font-size="12px" font-style="normal" font-weight="normal" text-decoration="normal" x="0" y="0" text-anchor="middle" dominant-baseline="text-after-edge" fill-opacity="1">downregulated </text><text fill="#000000" stroke="none" font-family="Helvetica Neue, Helvetica, sans-serif" font-size="12px" font-style="normal" font-weight="normal" text-decoration="normal" x="0" y="12" text-anchor="middle" dominant-baseline="text-after-edge" fill-opacity="1">in</text><g transform="rotate(36.53342746541487,0,0) translate(-292.3507311073977,-186.51608519473098)"><path fill="none" stroke="rgb(192,192,192)" paint-order="fill stroke markers" d=" M 298.357279909721 394.01001361049543 L 224.2034267904793 294.095956204035" stroke-opacity="1" stroke-linejoin="round" stroke-miterlimit="10" stroke-width="2"/><path fill="rgb(192,192,192)" stroke="none" paint-order="stroke fill markers" d=" M 230.49756740195886 295.2776050363553 L 221.81954007756391 290.88393438904285 L 223.51141995435094 300.46255863694626 Z" fill-opacity="1"/><g transform="translate(269.6843816718713,334.2499794535172) rotate(53.41806812447565,0,0)"><text fill="#000000" stroke="none" font-family="Helvetica Neue, Helvetica, sans-serif" font-size="12px" font-style="normal" font-weight="normal" text-decoration="normal" x="0" y="-6" text-anchor="middle" dominant-baseline="text-after-edge" fill-opacity="1">is </text><text fill="#000000" stroke="none" font-family="Helvetica Neue, Helvetica, sans-serif" font-size="12px" font-style="normal" font-weight="normal" text-decoration="normal" x="0" y="6" text-anchor="middle" dominant-baseline="text-after-edge" fill-opacity="1">over-reduced </text><text fill="#000000" stroke="none" font-family="Helvetica Neue, Helvetica, sans-serif" font-size="12px" font-style="normal" font-weight="normal" text-decoration="normal" x="0" y="18" text-anchor="middle" dominant-baseline="text-after-edge" fill-opacity="1">in</text><g transform="rotate(-53.41806812447565,0,0) translate(-269.6843816718713,-334.2499794535172)"><path fill="none" stroke="rgb(192,192,192)" paint-order="fill stroke markers" d=" M 198.33285385827523 218.76526666158497 L 199.38697911034996 99.04447952509886" stroke-opacity="1" stroke-linejoin="round" stroke-miterlimit="10" stroke-width="2"/><path fill="rgb(192,192,192)" stroke="none" paint-order="stroke fill markers" d=" M 203.69542924499785 103.78259702440724 L 199.42219720133647 95.04463456734521 L 194.99576646188368 103.70599767651154 Z" fill-opacity="1"/><g transform="translate(207.8687210070592,148.9049118539035) rotate(-89.49553148814655,0,0)"><text fill="#000000" stroke="none" font-family="Helvetica Neue, Helvetica, sans-serif" font-size="12px" font-style="normal" font-weight="normal" text-decoration="normal" x="0" y="0" text-anchor="middle" dominant-baseline="text-after-edge" fill-opacity="1">affect </text><text fill="#000000" stroke="none" font-family="Helvetica Neue, Helvetica, sans-serif" font-size="12px" font-style="normal" font-weight="normal" text-decoration="normal" x="0" y="12" text-anchor="middle" dominant-baseline="text-after-edge" fill-opacity="1">levels of</text><g transform="rotate(89.49553148814655,0,0) translate(-207.8687210070592,-148.9049118539035)"><path fill="none" stroke="rgb(192,192,192)" paint-order="fill stroke markers" d=" M 173.88758539788824 290.6936885579772 L 102.07231956559329 385.86868201981747" stroke-opacity="1" stroke-linejoin="round" stroke-miterlimit="10" stroke-width="2"/><path fill="rgb(192,192,192)" stroke="none" paint-order="stroke fill markers" d=" M 101.43087286310401 379.4967870012327 L 99.66301081054111 389.0616792517031 L 108.37564184245514 384.73703354347117 Z" fill-opacity="1"/><g transform="translate(146.37762529297774,330.07943459686874) rotate(-52.963247284231926,0,0)"><text fill="#000000" stroke="none" font-family="Helvetica Neue, Helvetica, sans-serif" font-size="12px" font-style="normal" font-weight="normal" text-decoration="normal" x="0" y="6" text-anchor="middle" dominant-baseline="text-after-edge" fill-opacity="1">show</text><g transform="rotate(52.963247284231926,0,0) translate(-146.37762529297774,-330.07943459686874)"><path fill="none" stroke="rgb(50,205,50)" paint-order="fill stroke markers" d=" M 233.84948910801472 276.4676148862691 L 338.10229134124916 327.9240397709269" stroke-opacity="1" stroke-linejoin="round" stroke-miterlimit="10" stroke-width="2"/><path fill="rgb(50,205,50)" stroke="none" paint-order="stroke fill markers" d=" M 331.96240646461825 329.74456543724415 L 341.6891729572096 329.6944296356417 L 335.81300442037286 321.9430979225301 Z" fill-opacity="1"/><g transform="translate(295.87261062862206,293.6384247947767) rotate(26.269727505286987,0,0)"><text fill="#000000" stroke="none" font-family="Helvetica Neue, Helvetica, sans-serif" font-size="12px" font-style="normal" font-weight="normal" text-decoration="normal" x="0" y="6" text-anchor="middle" dominant-baseline="text-after-edge" fill-opacity="1">affect</text><g transform="rotate(-26.269727505286987,0,0) translate(-295.87261062862206,-293.6384247947767)"><path fill="none" stroke="rgb(192,192,192)" paint-order="fill stroke markers" d=" M 237.964770466773 257.63591056346985 L 342.59885223004085 254.68456443830073" stroke-opacity="1" stroke-linejoin="round" stroke-miterlimit="10" stroke-width="2"/><path fill="rgb(192,192,192)" stroke="none" paint-order="stroke fill markers" d=" M 338.0233696388603 259.16535221031177 L 346.5972619818771 254.57178387073557 L 337.77807190440603 250.4688110000678 Z" fill-opacity="1"/><g transform="translate(300.281413786366,247.132042358994) rotate(-1.615676749400737,0,0)"><text fill="#000000" stroke="none" font-family="Helvetica Neue, Helvetica, sans-serif" font-size="12px" font-style="normal" font-weight="normal" text-decoration="normal" x="0" y="6" text-anchor="middle" dominant-baseline="text-after-edge" fill-opacity="1">show</text><g transform="rotate(1.615676749400737,0,0) translate(-300.281413786366,-247.132042358994)"><path fill="none" stroke="rgb(192,192,192)" paint-order="fill stroke markers" d=" M 198.65060488124553 298.75810573571664 L 200.46451497469565 407.04705754338056" stroke-opacity="1" stroke-linejoin="round" stroke-miterlimit="10" stroke-width="2"/><path fill="rgb(192,192,192)" stroke="none" paint-order="stroke fill markers" d=" M 196.03640811483274 402.42057187522647 L 200.5315081679792 411.0464964930401 L 204.7351878303422 402.27486167983477 Z" fill-opacity="1"/><g transform="translate(208.57430822629146,344.90244137696345) rotate(89.04034832402576,0,0)"><text fill="#000000" stroke="none" font-family="Helvetica Neue, Helvetica, sans-serif" font-size="12px" font-style="normal" font-weight="normal" text-decoration="normal" x="0" y="6" text-anchor="middle" dominant-baseline="text-after-edge" fill-opacity="1">diminished</text><g transform="rotate(-89.04034832402576,0,0) translate(-208.57430822629146,-344.90244137696345)"><path fill="rgb(216,191,216)" stroke="none" paint-order="stroke fill markers" d=" M 358.4275519477979 362.9560506450535 L 383.4275519477979 337.9560506450535 L 358.4275519477979 312.9560506450535 L 333.4275519477979 337.9560506450535 Z" fill-opacity="1"/><text fill="#000000" stroke="none" font-family="Helvetica Neue, Helvetica, sans-serif" font-size="14px" font-style="normal" font-weight="normal" text-decoration="normal" x="358.4275519477979" y="330.9560506450535" text-anchor="middle" dominant-baseline="text-after-edge" fill-opacity="1">Photosynthetic </text><text fill="#000000" stroke="none" font-family="Helvetica Neue, Helvetica, sans-serif" font-size="14px" font-style="normal" font-weight="normal" text-decoration="normal" x="358.4275519477979" y="344.9560506450535" text-anchor="middle" dominant-baseline="text-after-edge" fill-opacity="1">electron </text><text fill="#000000" stroke="none" font-family="Helvetica Neue, Helvetica, sans-serif" font-size="14px" font-style="normal" font-weight="normal" text-decoration="normal" x="358.4275519477979" y="358.9560506450535" text-anchor="middle" dominant-baseline="text-after-edge" fill-opacity="1">transport</text><path fill="rgb(144,238,144)" stroke="none" paint-order="stroke fill markers" d=" M -8.271690521175803 308.8383979198501 L -8.27169052117581 358.8383979198501 L 41.72830947882418 358.8383979198501 L 41.72830947882419 308.8383979198501 Z" fill-opacity="1"/><text fill="#000000" stroke="none" font-family="Helvetica Neue, Helvetica, sans-serif" font-size="14px" font-style="normal" font-weight="normal" text-decoration="normal" x="16.72830947882419" y="312.8383979198501" text-anchor="middle" dominant-baseline="text-after-edge" fill-opacity="1">Oxidation </text><text fill="#000000" stroke="none" font-family="Helvetica Neue, Helvetica, sans-serif" font-size="14px" font-style="normal" font-weight="normal" text-decoration="normal" x="16.72830947882419" y="326.8383979198501" text-anchor="middle" dominant-baseline="text-after-edge" fill-opacity="1">of </text><text fill="#000000" stroke="none" font-family="Helvetica Neue, Helvetica, sans-serif" font-size="14px" font-style="normal" font-weight="normal" text-decoration="normal" x="16.72830947882419" y="340.8383979198501" text-anchor="middle" dominant-baseline="text-after-edge" fill-opacity="1">photosystem </text><text fill="#000000" stroke="none" font-family="Helvetica Neue, Helvetica, sans-serif" font-size="14px" font-style="normal" font-weight="normal" text-decoration="normal" x="16.72830947882419" y="354.8383979198501" text-anchor="middle" dominant-baseline="text-after-edge" fill-opacity="1">I </text><text fill="#000000" stroke="none" font-family="Helvetica Neue, Helvetica, sans-serif" font-size="14px" font-style="normal" font-weight="normal" text-decoration="normal" x="16.72830947882419" y="368.8383979198501" text-anchor="middle" dominant-baseline="text-after-edge" fill-opacity="1">(PSI)</text><path fill="rgb(224,255,255)" stroke="none" paint-order="stroke fill markers" d=" M 21.336146771019767 123.35968491398222 L -3.66385322898023 142.45798547648747 L 5.885297052272394 173.35968491398222 L 36.786996489767134 173.35968491398222 L 46.33614677101977 142.4579854764875 Z" fill-opacity="1"/><text fill="#000000" stroke="none" font-family="Helvetica Neue, Helvetica, sans-serif" font-size="14px" font-style="normal" font-weight="normal" text-decoration="normal" x="21.336146771019767" y="134.35968491398222" text-anchor="middle" dominant-baseline="text-after-edge" fill-opacity="1">phosphorylation </text><text fill="#000000" stroke="none" font-family="Helvetica Neue, Helvetica, sans-serif" font-size="14px" font-style="normal" font-weight="normal" text-decoration="normal" x="21.336146771019767" y="148.35968491398222" text-anchor="middle" dominant-baseline="text-after-edge" fill-opacity="1">of </text><text fill="#000000" stroke="none" font-family="Helvetica Neue, Helvetica, sans-serif" font-size="14px" font-style="normal" font-weight="normal" text-decoration="normal" x="21.336146771019767" y="162.35968491398222" text-anchor="middle" dominant-baseline="text-after-edge" fill-opacity="1">thylakoid </text><text fill="#000000" stroke="none" font-family="Helvetica Neue, Helvetica, sans-serif" font-size="14px" font-style="normal" font-weight="normal" text-decoration="normal" x="21.336146771019767" y="176.35968491398222" text-anchor="middle" dominant-baseline="text-after-edge" fill-opacity="1">protein(s)</text><path fill="rgb(152,251,152)" stroke="none" paint-order="stroke fill markers" d=" M 309.0074125067186 433.35988101349784 L 334.0074125067186 408.35988101349784 L 309.0074125067186 383.35988101349784 L 284.0074125067186 408.35988101349784 Z" fill-opacity="1"/><text fill="#000000" stroke="none" font-family="Helvetica Neue, Helvetica, sans-serif" font-size="14px" font-style="normal" font-weight="normal" text-decoration="normal" x="309.0074125067186" y="408.35988101349784" text-anchor="middle" dominant-baseline="text-after-edge" fill-opacity="1">PQ </text><text fill="#000000" stroke="none" font-family="Helvetica Neue, Helvetica, sans-serif" font-size="14px" font-style="normal" font-weight="normal" text-decoration="normal" x="309.0074125067186" y="422.35988101349784" text-anchor="middle" dominant-baseline="text-after-edge" fill-opacity="1">pool</text><path fill="rgb(137,207,240)" stroke="none" paint-order="stroke fill markers" d=" M 225.95021562600147 436.0429899284121 L 225.87314896932966 438.0044673216082 L 225.6424241408799 439.9538515544179 L 225.25946363594338 441.87912402480976 L 224.7266285333803 443.7684147877858 L 224.04720393878364 445.6100757375394 L 223.22537873071067 447.3927524219008 L 222.26621973485376 449.10545404631085 L 221.17564048537514 450.73762123572396 L 219.96036476600224 452.2791911366667 L 218.62788515566515 453.7206594580758 L 217.18641683425605 455.05313906841286 L 215.6448469333133 456.2684147877858 L 214.01267974390018 457.35899403726444 L 212.29997811949013 458.3181530331213 L 210.5173014351287 459.1399782411943 L 208.67564048537514 459.8194028357909 L 206.7863497223991 460.35223793835405 L 204.86107725200725 460.7351984432905 L 202.9116930191976 460.96592327174034 L 200.95021562600147 461.0429899284121 L 198.98873823280533 460.96592327174034 L 197.03935399999568 460.7351984432905 L 195.11408152960382 460.35223793835405 L 193.2247907666278 459.8194028357909 L 191.38312981687423 459.1399782411943 L 189.6004531325128 458.3181530331213 L 187.88775150810275 457.35899403726444 L 186.25558431868964 456.2684147877858 L 184.71401441774688 455.05313906841286 L 183.27254609633778 453.72065945807583 L 181.9400664860007 452.2791911366667 L 180.7247907666278 450.73762123572396 L 179.63421151714917 449.10545404631085 L 178.6750525212923 447.3927524219008 L 177.8532273132193 445.6100757375394 L 177.17380271862262 443.7684147877858 L 176.64096761605956 441.87912402480976 L 176.25800711112302 439.9538515544179 L 176.02728228267327 438.0044673216082 L 175.95021562600147 436.0429899284121 L 176.02728228267327 434.081512535216 L 176.25800711112302 432.13212830240633 L 176.64096761605956 430.20685583201447 L 177.17380271862262 428.31756506903844 L 177.8532273132193 426.47590411928485 L 178.67505252129226 424.6932274349235 L 179.63421151714917 422.98052581051337 L 180.7247907666278 421.34835862110026 L 181.9400664860007 419.8067887201575 L 183.27254609633778 418.36532039874845 L 184.71401441774685 417.03284078841136 L 186.25558431868964 415.81756506903844 L 187.88775150810275 414.7269858195598 L 189.60045313251283 413.7678268237029 L 191.38312981687426 412.94600161562994 L 193.22479076662782 412.26657702103324 L 195.11408152960388 411.7337419184702 L 197.03935399999577 411.35078141353364 L 198.98873823280542 411.1200565850839 L 200.95021562600155 411.0429899284121 L 202.91169301919768 411.12005658508394 L 204.86107725200733 411.3507814135337 L 206.78634972239922 411.73374191847023 L 208.67564048537528 412.2665770210333 L 210.51730143512884 412.94600161563 L 212.29997811949028 413.767826823703 L 214.01267974390032 414.7269858195599 L 215.64484693331343 415.81756506903855 L 217.1864168342562 417.0328407884115 L 218.6278851556653 418.36532039874857 L 219.96036476600239 419.80678872015767 L 221.17564048537528 421.3483586211005 L 222.2662197348539 422.9805258105136 L 223.22537873071076 424.69322743492364 L 224.04720393878372 426.4759041192851 L 224.7266285333804 428.31756506903866 L 225.25946363594343 430.20685583201475 L 225.64242414087994 432.1321283024066 L 225.8731489693297 434.0815125352163 Z" fill-opacity="1"/><text fill="#000000" stroke="none" font-family="Helvetica Neue, Helvetica, sans-serif" font-size="14px" font-style="normal" font-weight="normal" text-decoration="normal" x="200.95021562600147" y="422.0429899284121" text-anchor="middle" dominant-baseline="text-after-edge" fill-opacity="1">PSI </text><text fill="#000000" stroke="none" font-family="Helvetica Neue, Helvetica, sans-serif" font-size="14px" font-style="normal" font-weight="normal" text-decoration="normal" x="200.95021562600147" y="436.0429899284121" text-anchor="middle" dominant-baseline="text-after-edge" fill-opacity="1">and </text><text fill="#000000" stroke="none" font-family="Helvetica Neue, Helvetica, sans-serif" font-size="14px" font-style="normal" font-weight="normal" text-decoration="normal" x="200.95021562600147" y="450.0429899284121" text-anchor="middle" dominant-baseline="text-after-edge" fill-opacity="1">PSII </text><text fill="#000000" stroke="none" font-family="Helvetica Neue, Helvetica, sans-serif" font-size="14px" font-style="normal" font-weight="normal" text-decoration="normal" x="200.95021562600147" y="464.0429899284121" text-anchor="middle" dominant-baseline="text-after-edge" fill-opacity="1">polypeptides</text><path fill="rgb(137,207,240)" stroke="none" paint-order="stroke fill markers" d=" M 224.6423102700023 70.04560358138492 L 224.5652436133305 72.00708097458104 L 224.33451878488074 73.95646520739069 L 223.9515582799442 75.88173767778255 L 223.41872317738114 77.77102844075861 L 222.73929858278447 79.61268939051217 L 221.9174733747115 81.39536607487359 L 220.9583143788546 83.10806769928365 L 219.86773512937597 84.74023488869675 L 218.65245941000308 86.28180478963952 L 217.319979799666 87.72327311104861 L 215.87851147825688 89.0557527213857 L 214.33694157731412 90.27102844075861 L 212.704774387901 91.36160769023724 L 210.99207276349097 92.32076668609412 L 209.20939607912953 93.1425918941671 L 207.36773512937597 93.82201648876377 L 205.47844436639994 94.35485159132683 L 203.55317189600808 94.73781209626337 L 201.60378766319843 94.96853692471312 L 199.6423102700023 95.04560358138492 L 197.68083287680616 94.96853692471312 L 195.73144864399652 94.73781209626337 L 193.80617617360465 94.35485159132685 L 191.91688541062862 93.82201648876377 L 190.07522446087506 93.1425918941671 L 188.29254777651363 92.32076668609412 L 186.57984615210358 91.36160769023724 L 184.94767896269047 90.27102844075861 L 183.4061090617477 89.0557527213857 L 181.9646407403386 87.72327311104861 L 180.63216113000152 86.28180478963952 L 179.41688541062862 84.74023488869676 L 178.32630616115 83.10806769928365 L 177.3671471652931 81.39536607487359 L 176.54532195722012 79.61268939051217 L 175.86589736262346 77.77102844075861 L 175.3330622600604 75.88173767778257 L 174.95010175512385 73.95646520739069 L 174.7193769266741 72.00708097458104 L 174.6423102700023 70.04560358138492 L 174.7193769266741 68.0841261881888 L 174.95010175512385 66.13474195537916 L 175.3330622600604 64.2094694849873 L 175.86589736262346 62.32017872201124 L 176.54532195722012 60.47851777225768 L 177.3671471652931 58.695841087896255 L 178.32630616115 56.98313946348621 L 179.4168854106286 55.3509722740731 L 180.63216113000152 53.80940237313034 L 181.9646407403386 52.367934051721235 L 183.40610906174769 51.03545444138416 L 184.94767896269047 49.82017872201124 L 186.57984615210358 48.72959947253261 L 188.29254777651366 47.77044047667572 L 190.0752244608751 46.948615268602744 L 191.91688541062865 46.26919067400607 L 193.8061761736047 45.736355571443 L 195.7314486439966 45.35339506650647 L 197.68083287680625 45.12267023805672 L 199.64231027000238 45.045603581384924 L 201.60378766319852 45.122670238056735 L 203.55317189600817 45.35339506650649 L 205.47844436640005 45.736355571443035 L 207.36773512937611 46.269190674006126 L 209.20939607912968 46.94861526860281 L 210.9920727634911 47.770440476675795 L 212.70477438790115 48.7295994725327 L 214.33694157731426 49.82017872201134 L 215.87851147825702 51.035454441384275 L 217.31997979966613 52.36793405172138 L 218.6524594100032 53.80940237313049 L 219.86773512937611 55.35097227407327 L 220.9583143788547 56.983139463486395 L 221.91747337471162 58.69584108789647 L 222.73929858278456 60.47851777225791 L 223.41872317738122 62.320178722011484 L 223.95155827994427 64.20946948498755 L 224.3345187848808 66.13474195537943 L 224.56524361333052 68.08412618818909 Z" fill-opacity="1"/><text fill="#000000" stroke="none" font-family="Helvetica Neue, Helvetica, sans-serif" font-size="14px" font-style="normal" font-weight="normal" text-decoration="normal" x="199.6423102700023" y="56.045603581384924" text-anchor="middle" dominant-baseline="text-after-edge" fill-opacity="1">PsaD </text><text fill="#000000" stroke="none" font-family="Helvetica Neue, Helvetica, sans-serif" font-size="14px" font-style="normal" font-weight="normal" text-decoration="normal" x="199.6423102700023" y="70.04560358138492" text-anchor="middle" dominant-baseline="text-after-edge" fill-opacity="1">mRNA </text><text fill="#000000" stroke="none" font-family="Helvetica Neue, Helvetica, sans-serif" font-size="14px" font-style="normal" font-weight="normal" text-decoration="normal" x="199.6423102700023" y="84.04560358138492" text-anchor="middle" dominant-baseline="text-after-edge" fill-opacity="1">and </text><text fill="#000000" stroke="none" font-family="Helvetica Neue, Helvetica, sans-serif" font-size="14px" font-style="normal" font-weight="normal" text-decoration="normal" x="199.6423102700023" y="98.04560358138492" text-anchor="middle" dominant-baseline="text-after-edge" fill-opacity="1">protein(s)</text><path fill="rgb(144,238,144)" stroke="none" paint-order="stroke fill markers" d=" M 55.79900483057518 389.0616792517031 L 55.79900483057517 439.0616792517031 L 105.79900483057516 439.0616792517031 L 105.79900483057517 389.0616792517031 Z" fill-opacity="1"/><text fill="#000000" stroke="none" font-family="Helvetica Neue, Helvetica, sans-serif" font-size="14px" font-style="normal" font-weight="normal" text-decoration="normal" x="80.79900483057517" y="407.0616792517031" text-anchor="middle" dominant-baseline="text-after-edge" fill-opacity="1">light-green </text><text fill="#000000" stroke="none" font-family="Helvetica Neue, Helvetica, sans-serif" font-size="14px" font-style="normal" font-weight="normal" text-decoration="normal" x="80.79900483057517" y="421.0616792517031" text-anchor="middle" dominant-baseline="text-after-edge" fill-opacity="1">leaf </text><text fill="#000000" stroke="none" font-family="Helvetica Neue, Helvetica, sans-serif" font-size="14px" font-style="normal" font-weight="normal" text-decoration="normal" x="80.79900483057517" y="435.0616792517031" text-anchor="middle" dominant-baseline="text-after-edge" fill-opacity="1">coloration</text><path fill="rgb(255,182,193)" stroke="none" paint-order="stroke fill markers" d=" M 270.32881992227004 61.56211021569681 L 257.82881992227004 86.5621102156968 L 270.32881992227004 111.56211021569679 L 295.32881992227004 111.5621102156968 L 307.82881992227004 86.5621102156968 L 295.3288199222701 61.56211021569683 Z" fill-opacity="1"/><text fill="#000000" stroke="none" font-family="Helvetica Neue, Helvetica, sans-serif" font-size="14px" font-style="normal" font-weight="normal" text-decoration="normal" x="282.82881992227004" y="86.5621102156968" text-anchor="middle" dominant-baseline="text-after-edge" fill-opacity="1">A. </text><text fill="#000000" stroke="none" font-family="Helvetica Neue, Helvetica, sans-serif" font-size="14px" font-style="normal" font-weight="normal" text-decoration="normal" x="282.82881992227004" y="100.5621102156968" text-anchor="middle" dominant-baseline="text-after-edge" fill-opacity="1">thaliana</text><path fill="rgb(144,238,144)" stroke="none" paint-order="stroke fill markers" d=" M 346.5972619818771 228.86662497904518 L 346.5972619818771 278.8666249790452 L 396.5972619818771 278.8666249790452 L 396.5972619818771 228.86662497904518 Z" fill-opacity="1"/><text fill="#000000" stroke="none" font-family="Helvetica Neue, Helvetica, sans-serif" font-size="14px" font-style="normal" font-weight="normal" text-decoration="normal" x="371.5972619818771" y="232.86662497904518" text-anchor="middle" dominant-baseline="text-after-edge" fill-opacity="1">increased </text><text fill="#000000" stroke="none" font-family="Helvetica Neue, Helvetica, sans-serif" font-size="14px" font-style="normal" font-weight="normal" text-decoration="normal" x="371.5972619818771" y="246.86662497904518" text-anchor="middle" dominant-baseline="text-after-edge" fill-opacity="1">sensitivity </text><text fill="#000000" stroke="none" font-family="Helvetica Neue, Helvetica, sans-serif" font-size="14px" font-style="normal" font-weight="normal" text-decoration="normal" x="371.5972619818771" y="260.8666249790452" text-anchor="middle" dominant-baseline="text-after-edge" fill-opacity="1">to </text><text fill="#000000" stroke="none" font-family="Helvetica Neue, Helvetica, sans-serif" font-size="14px" font-style="normal" font-weight="normal" text-decoration="normal" x="371.5972619818771" y="274.8666249790452" text-anchor="middle" dominant-baseline="text-after-edge" fill-opacity="1">light </text><text fill="#000000" stroke="none" font-family="Helvetica Neue, Helvetica, sans-serif" font-size="14px" font-style="normal" font-weight="normal" text-decoration="normal" x="371.5972619818771" y="288.8666249790452" text-anchor="middle" dominant-baseline="text-after-edge" fill-opacity="1">stress</text><path fill="rgb(144,238,144)" stroke="none" paint-order="stroke fill markers" d=" M -20.442055667091623 221.1210807698567 L -20.44205566709163 271.1210807698567 L 29.55794433290836 271.1210807698567 L 29.55794433290837 221.1210807698567 Z" fill-opacity="1"/><text fill="#000000" stroke="none" font-family="Helvetica Neue, Helvetica, sans-serif" font-size="14px" font-style="normal" font-weight="normal" text-decoration="normal" x="4.55794433290837" y="246.1210807698567" text-anchor="middle" dominant-baseline="text-after-edge" fill-opacity="1">Growth </text><text fill="#000000" stroke="none" font-family="Helvetica Neue, Helvetica, sans-serif" font-size="14px" font-style="normal" font-weight="normal" text-decoration="normal" x="4.55794433290837" y="260.1210807698567" text-anchor="middle" dominant-baseline="text-after-edge" fill-opacity="1">rate</text><path fill="rgb(137,207,240)" stroke="none" paint-order="stroke fill markers" d=" M 380.8646341829245 141.79312088834246 L 380.7875675262527 143.7545982815386 L 380.55684269780295 145.70398251434824 L 380.1738821928664 147.6292549847401 L 379.6410470903033 149.51854574771613 L 378.96162249570665 151.3602066974697 L 378.13979728763366 153.14288338183113 L 377.1806382917768 154.85558500624117 L 376.09005904229815 156.48775219565428 L 374.8747833229252 158.02932209659704 L 373.54230371258814 159.47079041800615 L 372.1008353911791 160.80327002834323 L 370.5592654902363 162.01854574771613 L 368.9270983008232 163.10912499719475 L 367.2143966764132 164.06828399305164 L 365.43171999205174 164.89010920112463 L 363.59005904229815 165.5695337957213 L 361.7007682793221 166.10236889828437 L 359.77549580893026 166.4853294032209 L 357.8261115761206 166.71605423167065 L 355.8646341829245 166.79312088834246 L 353.90315678972837 166.71605423167065 L 351.9537725569187 166.4853294032209 L 350.02850008652683 166.10236889828437 L 348.1392093235508 165.5695337957213 L 346.2975483737972 164.89010920112463 L 344.51487168943584 164.06828399305166 L 342.80217006502573 163.10912499719475 L 341.1700028756126 162.01854574771613 L 339.62843297466986 160.80327002834323 L 338.1869646532608 159.47079041800615 L 336.8544850429237 158.02932209659704 L 335.6392093235508 156.48775219565428 L 334.54863007407215 154.85558500624117 L 333.5894710782153 153.14288338183113 L 332.7676458701423 151.3602066974697 L 332.08822127554566 149.51854574771613 L 331.55538617298254 147.6292549847401 L 331.17242566804606 145.70398251434824 L 330.94170083959625 143.7545982815386 L 330.8646341829245 141.79312088834246 L 330.94170083959625 139.83164349514632 L 331.172425668046 137.8822592623367 L 331.55538617298254 135.95698679194481 L 332.0882212755456 134.06769602896878 L 332.7676458701423 132.22603507921522 L 333.5894710782153 130.4433583948538 L 334.54863007407215 128.73065677044374 L 335.6392093235508 127.09848958103063 L 336.85448504292367 125.55691968008787 L 338.18696465326076 124.11545135867877 L 339.62843297466986 122.7829717483417 L 341.1700028756126 121.56769602896878 L 342.80217006502573 120.47711677949015 L 344.51487168943584 119.51795778363325 L 346.29754837379727 118.69613257556028 L 348.1392093235508 118.0167079809636 L 350.0285000865269 117.48387287840053 L 351.95377255691875 117.10091237346401 L 353.9031567897284 116.87018754501426 L 355.86463418292453 116.79312088834246 L 357.8261115761207 116.87018754501426 L 359.7754958089304 117.10091237346403 L 361.70076827932223 117.48387287840058 L 363.59005904229826 118.01670798096366 L 365.43171999205185 118.69613257556034 L 367.2143966764133 119.51795778363334 L 368.92709830082333 120.47711677949023 L 370.55926549023644 121.56769602896887 L 372.1008353911792 122.78297174834181 L 373.5423037125883 124.11545135867891 L 374.8747833229254 125.55691968008801 L 376.09005904229826 127.0984895810308 L 377.1806382917769 128.73065677044394 L 378.13979728763377 130.443358394854 L 378.96162249570676 132.22603507921545 L 379.6410470903034 134.067696028969 L 380.1738821928665 135.9569867919451 L 380.55684269780295 137.88225926233696 L 380.7875675262527 139.83164349514664 Z" fill-opacity="1"/><text fill="#000000" stroke="none" font-family="Helvetica Neue, Helvetica, sans-serif" font-size="14px" font-style="normal" font-weight="normal" text-decoration="normal" x="355.8646341829245" y="120.79312088834246" text-anchor="middle" dominant-baseline="text-after-edge" fill-opacity="1">130 </text><text fill="#000000" stroke="none" font-family="Helvetica Neue, Helvetica, sans-serif" font-size="14px" font-style="normal" font-weight="normal" text-decoration="normal" x="355.8646341829245" y="134.79312088834246" text-anchor="middle" dominant-baseline="text-after-edge" fill-opacity="1">most </text><text fill="#000000" stroke="none" font-family="Helvetica Neue, Helvetica, sans-serif" font-size="14px" font-style="normal" font-weight="normal" text-decoration="normal" x="355.8646341829245" y="148.79312088834246" text-anchor="middle" dominant-baseline="text-after-edge" fill-opacity="1">strongly </text><text fill="#000000" stroke="none" font-family="Helvetica Neue, Helvetica, sans-serif" font-size="14px" font-style="normal" font-weight="normal" text-decoration="normal" x="355.8646341829245" y="162.79312088834246" text-anchor="middle" dominant-baseline="text-after-edge" fill-opacity="1">attenuated </text><text fill="#000000" stroke="none" font-family="Helvetica Neue, Helvetica, sans-serif" font-size="14px" font-style="normal" font-weight="normal" text-decoration="normal" x="355.8646341829245" y="176.79312088834246" text-anchor="middle" dominant-baseline="text-after-edge" fill-opacity="1">gene(s)</text><path fill="rgb(137,207,240)" stroke="none" paint-order="stroke fill markers" d=" M 119.4843556430277 87.4837587790256 L 119.4072889863559 89.44523617222173 L 119.17656415790614 91.39462040503138 L 118.79360365296961 93.31989287542324 L 118.26076855040654 95.2091836383993 L 117.58134395580987 97.05084458815286 L 116.75951874773689 98.83352127251428 L 115.80035975188 100.54622289692432 L 114.70978050240139 102.17839008633743 L 113.49450478302848 103.71995998728019 L 112.16202517269139 105.1614283086893 L 110.72055685128228 106.49390791902638 L 109.17898695033952 107.7091836383993 L 107.54681976092643 108.7997628878779 L 105.83411813651637 109.7589218837348 L 104.05144145215495 110.58074709180778 L 102.20978050240139 111.26017168640445 L 100.32048973942534 111.79300678896752 L 98.39521726903347 112.17596729390405 L 96.44583303622382 112.4066921223538 L 94.4843556430277 112.4837587790256 L 92.52287824983158 112.4066921223538 L 90.57349401702193 112.17596729390405 L 88.64822154663007 111.79300678896752 L 86.75893078365401 111.26017168640445 L 84.91726983390045 110.58074709180778 L 83.13459314953903 109.7589218837348 L 81.42189152512898 108.79976288787792 L 79.78972433571587 107.7091836383993 L 78.24815443477311 106.49390791902638 L 76.80668611336401 105.1614283086893 L 75.47420650302692 103.7199599872802 L 74.25893078365402 102.17839008633743 L 73.1683515341754 100.54622289692433 L 72.2091925383185 98.83352127251428 L 71.38736733024552 97.05084458815286 L 70.70794273564886 95.2091836383993 L 70.17510763308579 93.31989287542325 L 69.79214712814925 91.39462040503138 L 69.5614222996995 89.44523617222174 L 69.4843556430277 87.4837587790256 L 69.5614222996995 85.52228138582949 L 69.79214712814925 83.57289715301984 L 70.17510763308579 81.64762468262798 L 70.70794273564886 79.75833391965193 L 71.38736733024552 77.91667296989837 L 72.2091925383185 76.13399628553694 L 73.16835153417539 74.4212946611269 L 74.25893078365401 72.78912747171378 L 75.47420650302692 71.24755757077102 L 76.80668611336401 69.80608924936192 L 78.2481544347731 68.47360963902484 L 79.78972433571587 67.25833391965193 L 81.42189152512898 66.1677546701733 L 83.13459314953904 65.2085956743164 L 84.91726983390048 64.38677046624343 L 86.75893078365405 63.70734587164675 L 88.64822154663011 63.17451076908368 L 90.57349401702199 62.791550264147155 L 92.52287824983165 62.5608254356974 L 94.48435564302778 62.48375877902561 L 96.44583303622392 62.56082543569742 L 98.39521726903358 62.791550264147176 L 100.32048973942545 63.17451076908372 L 102.2097805024015 63.70734587164681 L 104.05144145215507 64.38677046624349 L 105.83411813651651 65.20859567431648 L 107.54681976092655 66.16775467017338 L 109.17898695033966 67.25833391965202 L 110.72055685128242 68.47360963902496 L 112.16202517269153 69.80608924936206 L 113.4945047830286 71.24755757077116 L 114.70978050240151 72.78912747171395 L 115.80035975188012 74.42129466112708 L 116.759518747737 76.13399628553715 L 117.58134395580996 77.9166729698986 L 118.26076855040662 79.75833391965217 L 118.79360365296968 81.64762468262823 L 119.17656415790618 83.57289715302011 L 119.40728898635592 85.52228138582977 Z" fill-opacity="1"/><text fill="#000000" stroke="none" font-family="Helvetica Neue, Helvetica, sans-serif" font-size="14px" font-style="normal" font-weight="normal" text-decoration="normal" x="94.4843556430277" y="94.4837587790256" text-anchor="middle" dominant-baseline="text-after-edge" fill-opacity="1">pLhca4</text><path fill="rgb(255,215,0)" stroke="none" paint-order="stroke fill markers" d=" M 237.98067294840993 258.76371623912144 L 237.85736629773504 261.90208006823525 L 237.48820657221546 265.02109484073065 L 236.875469764317 268.10153079335765 L 236.02293360021608 271.1243960141193 L 234.9358542488614 274.07105353372503 L 233.62093391594465 276.9233362287033 L 232.08627952257362 279.6636588277594 L 230.34135272340782 282.27512633082034 L 228.39691157241117 284.7416381723288 L 226.26494419587183 287.04798748658334 L 223.95859488161727 289.1799548631227 L 221.49208304010887 291.1243960141193 L 218.8806155370479 292.8693228132851 L 216.1402929379918 294.4039772066561 L 213.28801024301353 295.71889753957294 L 210.34135272340782 296.8059768909276 L 207.31848750264615 297.6585130550285 L 204.23805155001918 298.27124986292694 L 201.11903677752372 298.6404095884466 L 197.98067294840993 298.76371623912144 L 194.84230911929615 298.6404095884466 L 191.72329434680069 298.27124986292694 L 188.64285839417371 297.6585130550285 L 185.61999317341204 296.8059768909276 L 182.67333565380633 295.71889753957294 L 179.82105295882806 294.4039772066561 L 177.080730359772 292.8693228132851 L 174.469262856711 291.1243960141193 L 172.0027510152026 289.1799548631227 L 169.69640170094803 287.04798748658334 L 167.5644343244087 284.7416381723288 L 165.61999317341204 282.27512633082034 L 163.87506637424625 279.6636588277594 L 162.34041198087522 276.9233362287033 L 161.02549164795846 274.07105353372503 L 159.9384122966038 271.1243960141193 L 159.08587613250288 268.10153079335765 L 158.47313932460443 265.02109484073065 L 158.10397959908482 261.90208006823525 L 157.98067294840993 258.76371623912144 L 158.10397959908482 255.62535241000765 L 158.4731393246044 252.50633763751222 L 159.08587613250288 249.42590168488522 L 159.9384122966038 246.40303646412355 L 161.02549164795846 243.45637894451784 L 162.34041198087522 240.60409624953957 L 163.87506637424625 237.8637736504835 L 165.619993173412 235.25230614742253 L 167.5644343244087 232.7857943059141 L 169.69640170094803 230.47944499165953 L 172.00275101520256 228.34747761512023 L 174.469262856711 226.40303646412355 L 177.080730359772 224.65810966495775 L 179.8210529588281 223.1234552715867 L 182.6733356538064 221.80853493866994 L 185.6199931734121 220.7214555873153 L 188.6428583941738 219.86891942321435 L 191.7232943468008 219.2561826153159 L 194.84230911929626 218.8870228897963 L 197.98067294841007 218.76371623912144 L 201.1190367775239 218.88702288979633 L 204.23805155001932 219.25618261531594 L 207.31848750264632 219.8689194232144 L 210.34135272340802 220.72145558731535 L 213.28801024301373 221.80853493867005 L 216.14029293799203 223.12345527158683 L 218.8806155370481 224.6581096649579 L 221.4920830401091 226.40303646412372 L 223.9585948816175 228.3474776151204 L 226.26494419587206 230.47944499165976 L 228.3969115724114 232.78579430591435 L 230.34135272340802 235.2523061474228 L 232.08627952257382 237.86377365048378 L 233.62093391594482 240.6040962495399 L 234.93585424886157 243.4563789445182 L 236.02293360021622 246.40303646412394 L 236.8754697643171 249.42590168488564 L 237.48820657221552 252.50633763751264 L 237.8573662977351 255.6253524100081 Z" fill-opacity="1"/><text fill="#000000" stroke="none" font-family="Helvetica Neue, Helvetica, sans-serif" font-size="25px" font-style="normal" font-weight="normal" text-decoration="normal" x="197.98067294840993" y="246.26371623912144" text-anchor="middle" dominant-baseline="text-after-edge" fill-opacity="1">(PSAD-1, </text><text fill="#000000" stroke="none" font-family="Helvetica Neue, Helvetica, sans-serif" font-size="25px" font-style="normal" font-weight="normal" text-decoration="normal" x="197.98067294840993" y="271.26371623912144" text-anchor="middle" dominant-baseline="text-after-edge" fill-opacity="1">PSAD1, </text><text fill="#000000" stroke="none" font-family="Helvetica Neue, Helvetica, sans-serif" font-size="25px" font-style="normal" font-weight="normal" text-decoration="normal" x="197.98067294840993" y="296.26371623912144" text-anchor="middle" dominant-baseline="text-after-edge" fill-opacity="1">AT4G02770)-1</text><g transform="scale(0.5929467337700085,0.5929467337700085) translate(-181.82685477021434,72.71830814353179)"/></g></g></g></g></g></g></g></g></g></g></g></g></g></g></g></g></g></g></g></g></g></g></g></g></g></g></svg>